<?xml version="1.0" encoding="UTF-8"?>
<!-- Generator: Adobe Illustrator 23.1.0, SVG Export Plug-In . SVG Version: 6.00 Build 0)  -->
<svg xmlns="http://www.w3.org/2000/svg" xmlns:xlink="http://www.w3.org/1999/xlink" version="1.1" id="Layer_1" x="0px" y="0px" viewBox="0 0 476 233.7" style="enable-background:new 0 0 476 233.7;" xml:space="preserve">
<style type="text/css">
	.st0{fill:#1E1E1E;}
	.st1{fill:#CD2027;}
	.st2{fill:#999999;}
</style>
<g>
	<g>
		<polygon class="st0" points="48.2,0 105.5,107.5 162.2,0 209.7,0 132.9,141.3 78.8,141.3 0,0   "></polygon>
		<polygon class="st1" points="204.7,141.3 262,33.9 318.7,141.3 366.2,141.3 289.4,0 235.3,0 156.5,141.3   "></polygon>
		<polygon class="st0" points="261.7,85.3 291.7,141.3 231.1,141.3   "></polygon>
		<polygon class="st0" points="476,35.1 476,0 315.3,0 334.3,35.1   "></polygon>
		<polygon class="st0" points="390.9,141.3 476,141.3 476,106.2 372.8,106.2 391.6,140.9   "></polygon>
		<polygon class="st0" points="476,85.4 476,57.3 346.4,57.3 361.6,85.4   "></polygon>
	</g>
	<g>
		<g>
			<path class="st1" d="M5.6,193.9L0,162.8h5.9l3.3,21.1l3.1-21.1h6.2l-5.7,31.1H5.6z"></path>
			<path class="st1" d="M21.7,193.9v-31.1h6.9v31.1H21.7z"></path>
			<path class="st1" d="M41.5,194.4c-1.9,0-3.6-0.3-4.9-1c-1.3-0.7-2.3-1.8-3-3.2c-0.7-1.4-1-3.3-1.1-5.6l5.9-0.9     c0,1.3,0.1,2.4,0.4,3.2c0.2,0.8,0.5,1.4,0.9,1.8c0.4,0.4,0.9,0.5,1.4,0.5c0.7,0,1.2-0.2,1.4-0.7c0.2-0.5,0.3-1,0.3-1.5     c0-1.3-0.3-2.4-0.9-3.2c-0.6-0.9-1.4-1.8-2.5-2.7l-2.7-2.3c-1.2-1-2.2-2.1-3-3.4c-0.8-1.3-1.2-2.8-1.2-4.7c0-2.6,0.8-4.7,2.3-6     c1.6-1.4,3.7-2.1,6.4-2.1c1.7,0,3,0.3,4,0.8c1,0.6,1.8,1.3,2.3,2.2c0.5,0.9,0.9,1.9,1.1,2.9c0.2,1,0.3,2,0.3,2.9l-5.9,0.7     c0-0.9-0.1-1.7-0.2-2.4c-0.1-0.7-0.3-1.2-0.6-1.6c-0.3-0.4-0.7-0.6-1.3-0.6c-0.6,0-1.1,0.3-1.4,0.8c-0.3,0.5-0.4,1.1-0.4,1.6     c0,1.2,0.3,2.1,0.8,2.8c0.6,0.7,1.3,1.5,2.2,2.3l2.6,2.3c1.4,1.2,2.5,2.5,3.4,3.9c0.9,1.5,1.4,3.3,1.4,5.4c0,1.5-0.3,2.8-1,4     c-0.7,1.2-1.6,2.1-2.8,2.8C44.6,194,43.1,194.4,41.5,194.4z"></path>
			<path class="st1" d="M56.8,193.9l-5.6-31.1h5.9l3.3,21.1l3.1-21.1h6.2l-5.7,31.1H56.8z"></path>
			<path class="st1" d="M72.9,193.9v-31.1h14v4.7h-7.1v7.7h5.4v4.8h-5.4v9.3h7.2v4.6H72.9z"></path>
			<path class="st1" d="M98.3,194.4c-1.9,0-3.6-0.3-4.9-1c-1.3-0.7-2.3-1.8-3-3.2c-0.7-1.4-1-3.3-1.1-5.6l5.9-0.9     c0,1.3,0.1,2.4,0.4,3.2c0.2,0.8,0.5,1.4,0.9,1.8c0.4,0.4,0.9,0.5,1.4,0.5c0.7,0,1.2-0.2,1.4-0.7c0.2-0.5,0.3-1,0.3-1.5     c0-1.3-0.3-2.4-0.9-3.2c-0.6-0.9-1.4-1.8-2.5-2.7l-2.7-2.3c-1.2-1-2.2-2.1-3-3.4c-0.8-1.3-1.2-2.8-1.2-4.7c0-2.6,0.8-4.7,2.3-6     c1.6-1.4,3.7-2.1,6.4-2.1c1.7,0,3,0.3,4,0.8c1,0.6,1.8,1.3,2.3,2.2c0.5,0.9,0.9,1.9,1.1,2.9c0.2,1,0.3,2,0.3,2.9l-5.9,0.7     c0-0.9-0.1-1.7-0.2-2.4c-0.1-0.7-0.3-1.2-0.6-1.6c-0.3-0.4-0.7-0.6-1.3-0.6c-0.6,0-1.1,0.3-1.4,0.8c-0.3,0.5-0.4,1.1-0.4,1.6     c0,1.2,0.3,2.1,0.8,2.8c0.6,0.7,1.3,1.5,2.2,2.3l2.6,2.3c1.4,1.2,2.5,2.5,3.4,3.9c0.9,1.5,1.4,3.3,1.4,5.4c0,1.5-0.3,2.8-1,4     c-0.7,1.2-1.6,2.1-2.8,2.8C101.4,194,99.9,194.4,98.3,194.4z"></path>
			<path class="st1" d="M118.1,193.9l5.9-31.1h7.8l5.8,31.1h-6.3l-1-6.6h-4.6l-1.1,6.6H118.1z M126.3,183.2h3.3l-1.7-12.1     L126.3,183.2z"></path>
			<path class="st1" d="M140.8,193.9v-31.1h7.9c2.7,0,4.8,0.3,6.3,1c1.5,0.7,2.6,1.7,3.2,3.2c0.6,1.4,0.9,3.3,0.9,5.6v11.3     c0,2.3-0.3,4.2-0.9,5.7c-0.6,1.5-1.7,2.6-3.2,3.2c-1.5,0.7-3.6,1-6.3,1H140.8z M147.6,189.1h1.1c1,0,1.8-0.2,2.3-0.5     c0.5-0.3,0.7-0.8,0.9-1.4c0.1-0.6,0.2-1.4,0.2-2.3v-13.6c0-0.9-0.1-1.7-0.2-2.2c-0.1-0.6-0.4-1-0.9-1.2c-0.5-0.3-1.2-0.4-2.2-0.4     h-1V189.1z"></path>
			<path class="st1" d="M167.1,193.9l-5.6-31.1h5.9l3.3,21.1l3.1-21.1h6.2l-5.7,31.1H167.1z"></path>
			<path class="st1" d="M180.5,193.9l5.9-31.1h7.8l5.8,31.1h-6.3l-1-6.6H188l-1.1,6.6H180.5z M188.6,183.2h3.3l-1.7-12.1     L188.6,183.2z"></path>
			<path class="st1" d="M203.1,193.9v-31.1h4.8l6.4,15v-15h5.7v31.1h-4.6l-6.4-16.1v16.1H203.1z"></path>
			<path class="st1" d="M233.6,194.4c-2.4,0-4.2-0.4-5.6-1.3c-1.4-0.9-2.3-2.1-2.9-3.6c-0.6-1.5-0.8-3.4-0.8-5.5v-11.2     c0-2.2,0.3-4,0.8-5.5c0.6-1.5,1.5-2.7,2.9-3.6c1.4-0.8,3.2-1.3,5.6-1.3c2.3,0,4.1,0.4,5.4,1.1c1.3,0.8,2.2,1.8,2.7,3.2     c0.5,1.4,0.8,2.9,0.8,4.7v2.7h-6.7v-3.1c0-0.6,0-1.2-0.1-1.8c-0.1-0.6-0.2-1-0.6-1.4c-0.3-0.4-0.8-0.6-1.6-0.6     c-0.7,0-1.2,0.2-1.6,0.6c-0.3,0.4-0.6,0.9-0.7,1.4c-0.1,0.6-0.1,1.2-0.1,1.8v14.6c0,0.7,0.1,1.3,0.2,1.9s0.3,1,0.7,1.4     s0.9,0.5,1.5,0.5c0.7,0,1.2-0.2,1.5-0.6s0.5-0.9,0.6-1.4c0.1-0.6,0.1-1.2,0.1-1.8v-3.3h6.7v2.7c0,1.8-0.3,3.3-0.8,4.7     c-0.5,1.4-1.4,2.5-2.7,3.3C237.7,194,235.9,194.4,233.6,194.4z"></path>
			<path class="st1" d="M246.3,193.9v-31.1h14v4.7h-7.1v7.7h5.4v4.8h-5.4v9.3h7.2v4.6H246.3z"></path>
			<path class="st1" d="M273.3,193.9v-31.1h14v4.7h-7.1v7.7h5.4v4.8h-5.4v9.3h7.2v4.6H273.3z"></path>
			<path class="st1" d="M290.5,193.9v-31.1h4.8l6.4,15v-15h5.7v31.1h-4.6l-6.4-16.1v16.1H290.5z"></path>
			<path class="st1" d="M320.1,194.4c-2.1,0-3.8-0.4-5.1-1.3c-1.2-0.9-2.1-2.2-2.6-3.8c-0.5-1.6-0.8-3.5-0.8-5.6v-10.4     c0-2.2,0.3-4.1,0.8-5.7c0.6-1.6,1.5-2.9,2.9-3.7c1.4-0.9,3.2-1.3,5.6-1.3c2.3,0,4.1,0.4,5.4,1.2c1.3,0.8,2.3,1.8,2.8,3.2     c0.6,1.4,0.8,2.9,0.8,4.8v2h-6.7v-2.5c0-0.7,0-1.3-0.1-1.8c-0.1-0.6-0.3-1-0.6-1.4c-0.3-0.3-0.8-0.5-1.6-0.5     c-0.7,0-1.3,0.2-1.6,0.6c-0.3,0.4-0.5,0.9-0.6,1.5c-0.1,0.6-0.1,1.2-0.1,1.8v14.4c0,0.7,0.1,1.3,0.2,1.9c0.1,0.6,0.4,1.1,0.8,1.5     c0.4,0.4,0.9,0.6,1.6,0.6c0.7,0,1.3-0.2,1.7-0.6s0.7-0.9,0.8-1.5s0.2-1.3,0.2-2v-3.6h-2.8v-4h9v16.1h-4.5l-0.4-2.6     c-0.4,0.9-1,1.6-1.8,2.2C322.5,194.1,321.5,194.4,320.1,194.4z"></path>
			<path class="st1" d="M334.4,193.9v-31.1h6.9v31.1H334.4z"></path>
			<path class="st1" d="M345.9,193.9v-31.1h4.8l6.4,15v-15h5.7v31.1h-4.6l-6.4-16.1v16.1H345.9z"></path>
			<path class="st1" d="M367.5,193.9v-31.1h14v4.7h-7.1v7.7h5.4v4.8h-5.4v9.3h7.2v4.6H367.5z"></path>
			<path class="st1" d="M384.6,193.9v-31.1h14v4.7h-7.1v7.7h5.4v4.8h-5.4v9.3h7.2v4.6H384.6z"></path>
			<path class="st1" d="M401.8,193.9v-31.1h8.6c2.1,0,3.9,0.2,5.5,0.7c1.5,0.5,2.7,1.3,3.6,2.5c0.9,1.2,1.3,2.9,1.3,5.1     c0,1.3-0.1,2.4-0.3,3.4c-0.2,1-0.6,1.9-1.1,2.6c-0.6,0.7-1.3,1.3-2.4,1.8l4.3,15.1h-7.1l-3.4-13.9h-2v13.9H401.8z M408.7,176h1.9     c1,0,1.7-0.2,2.3-0.5c0.5-0.3,0.9-0.8,1.1-1.5c0.2-0.7,0.3-1.4,0.3-2.4c0-1.3-0.2-2.4-0.7-3.1c-0.5-0.7-1.4-1.1-2.7-1.1h-2.2V176     z"></path>
			<path class="st1" d="M424.9,193.9v-31.1h6.9v31.1H424.9z"></path>
			<path class="st1" d="M436.4,193.9v-31.1h4.8l6.4,15v-15h5.7v31.1h-4.6l-6.4-16.1v16.1H436.4z"></path>
			<path class="st1" d="M466.1,194.4c-2.1,0-3.8-0.4-5.1-1.3c-1.2-0.9-2.1-2.2-2.6-3.8c-0.5-1.6-0.8-3.5-0.8-5.6v-10.4     c0-2.2,0.3-4.1,0.8-5.7c0.6-1.6,1.5-2.9,2.9-3.7c1.4-0.9,3.2-1.3,5.6-1.3c2.3,0,4.1,0.4,5.4,1.2c1.3,0.8,2.3,1.8,2.8,3.2     c0.6,1.4,0.8,2.9,0.8,4.8v2h-6.7v-2.5c0-0.7,0-1.3-0.1-1.8c-0.1-0.6-0.3-1-0.6-1.4c-0.3-0.3-0.8-0.5-1.6-0.5     c-0.7,0-1.3,0.2-1.6,0.6c-0.3,0.4-0.5,0.9-0.6,1.5c-0.1,0.6-0.1,1.2-0.1,1.8v14.4c0,0.7,0.1,1.3,0.2,1.9c0.1,0.6,0.4,1.1,0.8,1.5     c0.4,0.4,0.9,0.6,1.6,0.6c0.7,0,1.3-0.2,1.7-0.6s0.7-0.9,0.8-1.5c0.2-0.6,0.2-1.3,0.2-2v-3.6H467v-4h9v16.1h-4.5l-0.4-2.6     c-0.4,0.9-1,1.6-1.8,2.2S467.4,194.4,466.1,194.4z"></path>
		</g>
	</g>
	<g>
		<path class="st2" d="M7.6,233.7c-1.7,0-3-0.4-4.1-1.1c-1.1-0.7-1.9-1.7-2.5-3c-0.6-1.3-0.9-2.7-1-4.4l3.6-1c0.1,1,0.2,2,0.5,2.9    c0.2,0.9,0.7,1.7,1.2,2.3c0.6,0.6,1.4,0.9,2.4,0.9c1,0,1.8-0.3,2.4-0.9c0.5-0.6,0.8-1.4,0.8-2.5c0-1.3-0.3-2.4-0.9-3.1    c-0.6-0.8-1.3-1.6-2.2-2.4l-4.8-4.3c-0.9-0.8-1.6-1.7-2.1-2.7c-0.5-1-0.7-2.2-0.7-3.6c0-2.1,0.6-3.7,1.8-4.9    c1.2-1.2,2.9-1.7,4.9-1.7c1.1,0,2.1,0.1,3,0.4c0.9,0.3,1.6,0.8,2.2,1.4c0.6,0.6,1,1.4,1.4,2.3c0.3,0.9,0.6,2,0.7,3.3l-3.4,0.9    c-0.1-0.9-0.2-1.8-0.4-2.6c-0.2-0.8-0.6-1.4-1.1-1.9c-0.5-0.5-1.3-0.7-2.3-0.7c-1,0-1.8,0.3-2.3,0.8c-0.6,0.5-0.8,1.3-0.8,2.4    c0,0.9,0.1,1.6,0.4,2.2c0.3,0.6,0.8,1.1,1.4,1.7l4.9,4.3c1.1,0.9,2,2.1,2.9,3.4c0.8,1.3,1.2,2.9,1.2,4.7c0,1.4-0.3,2.6-0.9,3.7    c-0.6,1-1.4,1.8-2.4,2.4C10.2,233.4,9,233.7,7.6,233.7z"></path>
		<path class="st2" d="M17.3,233.4v-20.5h3.5v2c0.7-0.8,1.4-1.4,2.3-1.7c0.8-0.4,1.7-0.6,2.6-0.6c0.8,0,1.4,0.2,2,0.6    c0.6,0.4,1,1.1,1.3,2c0.7-0.9,1.5-1.6,2.4-2c0.9-0.4,1.8-0.6,2.7-0.6c0.7,0,1.3,0.2,1.8,0.5c0.5,0.3,1,0.8,1.3,1.5    c0.3,0.7,0.5,1.6,0.5,2.8v16.1h-3.5v-15.9c0-1-0.2-1.7-0.5-2c-0.3-0.3-0.8-0.5-1.3-0.5c-0.5,0-1.1,0.1-1.6,0.4    c-0.6,0.3-1.1,0.7-1.6,1.2c0,0.1,0,0.2,0,0.3c0,0.1,0,0.2,0,0.3v16.1h-3.5v-15.9c0-1-0.2-1.7-0.5-2c-0.3-0.3-0.8-0.5-1.3-0.5    c-0.5,0-1.1,0.1-1.6,0.4c-0.6,0.3-1.1,0.7-1.6,1.2v16.7H17.3z"></path>
		<path class="st2" d="M45.2,233.7c-0.8,0-1.5-0.2-2.1-0.7c-0.6-0.5-1.1-1.1-1.5-1.8c-0.4-0.7-0.5-1.5-0.5-2.3    c0-1.3,0.2-2.4,0.6-3.2s1-1.6,1.8-2.2c0.7-0.6,1.6-1.1,2.6-1.6c1-0.4,2-0.9,3.1-1.3v-1.5c0-0.8,0-1.5-0.1-2.1    c-0.1-0.5-0.3-1-0.6-1.2c-0.3-0.3-0.7-0.4-1.3-0.4c-0.5,0-0.9,0.1-1.3,0.4c-0.3,0.2-0.6,0.6-0.7,1c-0.1,0.4-0.2,1-0.2,1.5v1    l-3.8-0.1c0-2.3,0.6-4,1.6-5c1-1.1,2.5-1.6,4.6-1.6c2,0,3.5,0.6,4.3,1.7c0.9,1.1,1.3,2.7,1.3,4.8v9.4c0,0.6,0,1.3,0.1,1.8    c0,0.6,0.1,1.1,0.1,1.7c0.1,0.5,0.1,1,0.2,1.4h-3.5c-0.1-0.4-0.2-0.9-0.3-1.4c-0.1-0.6-0.2-1.1-0.2-1.6c-0.2,0.8-0.7,1.6-1.4,2.3    C47.3,233.3,46.4,233.7,45.2,233.7z M46.7,230.4c0.4,0,0.7-0.1,1.1-0.3c0.3-0.2,0.6-0.5,0.9-0.7c0.3-0.3,0.4-0.5,0.5-0.7v-5.8    c-0.6,0.3-1.1,0.7-1.7,1c-0.5,0.3-1,0.7-1.4,1c-0.4,0.4-0.7,0.8-0.9,1.2c-0.2,0.5-0.3,1-0.3,1.6c0,0.8,0.2,1.5,0.5,2    C45.7,230.2,46.1,230.4,46.7,230.4z"></path>
		<path class="st2" d="M56.8,233.4v-20.5h3.8v2.9c0.8-1.3,1.5-2.1,2.3-2.5c0.8-0.4,1.5-0.6,2.3-0.6c0.1,0,0.2,0,0.3,0    c0.1,0,0.2,0,0.3,0v4.2c-0.3-0.1-0.6-0.2-1-0.3c-0.4-0.1-0.7-0.1-1.1-0.1c-0.6,0-1.1,0.1-1.6,0.4c-0.5,0.3-1,0.8-1.4,1.6v15H56.8z    "></path>
		<path class="st2" d="M73.5,233.7c-1.1,0-1.9-0.2-2.6-0.6c-0.7-0.4-1.1-1-1.4-1.7c-0.3-0.7-0.4-1.6-0.4-2.6v-13.4h-2.2v-2.5h2.2v-6    h3.8v6h3.3v2.5h-3.3v13.1c0,0.8,0.1,1.4,0.4,1.7c0.3,0.3,0.8,0.5,1.5,0.5c0.2,0,0.4,0,0.7,0c0.2,0,0.5,0,0.7-0.1v2.8    c-0.5,0.1-0.9,0.1-1.3,0.2C74.4,233.6,74,233.7,73.5,233.7z"></path>
		<path class="st2" d="M87.7,233.4v-28.8h3.9v28.8H87.7z"></path>
		<path class="st2" d="M96,233.4v-20.5h3.8v2c0.7-0.6,1.4-1.2,2.3-1.6c0.8-0.4,1.7-0.7,2.7-0.7c0.8,0,1.5,0.2,1.9,0.6    c0.4,0.4,0.7,1,0.9,1.6c0.2,0.6,0.3,1.3,0.3,2v16.6h-3.8v-15.5c0-0.7-0.1-1.3-0.3-1.7c-0.2-0.4-0.7-0.6-1.3-0.6    c-0.4,0-0.9,0.1-1.3,0.4c-0.5,0.2-0.9,0.6-1.3,0.9v16.6H96z"></path>
		<path class="st2" d="M111.6,233.4v-20.5h3.8v2c0.7-0.6,1.4-1.2,2.3-1.6c0.8-0.4,1.7-0.7,2.7-0.7c0.8,0,1.5,0.2,1.9,0.6    c0.4,0.4,0.7,1,0.9,1.6c0.2,0.6,0.3,1.3,0.3,2v16.6h-3.8v-15.5c0-0.7-0.1-1.3-0.3-1.7c-0.2-0.4-0.7-0.6-1.3-0.6    c-0.4,0-0.9,0.1-1.3,0.4c-0.5,0.2-0.9,0.6-1.3,0.9v16.6H111.6z"></path>
		<path class="st2" d="M132.8,233.7c-1.5,0-2.7-0.3-3.6-0.9c-0.9-0.6-1.5-1.5-1.9-2.6c-0.4-1.1-0.6-2.5-0.6-4v-6    c0-1.5,0.2-2.9,0.6-4c0.4-1.1,1-2,1.9-2.6c0.9-0.6,2.1-0.9,3.6-0.9c1.5,0,2.7,0.3,3.6,0.9c0.9,0.6,1.5,1.5,1.8,2.6    c0.4,1.1,0.6,2.5,0.6,4v6c0,1.5-0.2,2.9-0.6,4c-0.4,1.1-1,2-1.8,2.6C135.5,233.3,134.3,233.7,132.8,233.7z M132.8,230.8    c0.7,0,1.2-0.2,1.5-0.6c0.3-0.4,0.5-1,0.5-1.7c0.1-0.7,0.1-1.4,0.1-2.2v-6.4c0-0.8,0-1.5-0.1-2.2c-0.1-0.7-0.2-1.2-0.5-1.7    c-0.3-0.4-0.8-0.7-1.5-0.7c-0.7,0-1.3,0.2-1.6,0.7c-0.3,0.4-0.5,1-0.6,1.7c-0.1,0.7-0.1,1.4-0.1,2.2v6.4c0,0.8,0,1.5,0.1,2.2    c0.1,0.7,0.2,1.3,0.6,1.7C131.6,230.6,132.1,230.8,132.8,230.8z"></path>
		<path class="st2" d="M144.9,233.4l-4.1-20.5h3.8l2.5,16.5l2.6-16.5h3.7l-3.9,20.5H144.9z"></path>
		<path class="st2" d="M159.6,233.7c-0.8,0-1.5-0.2-2.1-0.7c-0.6-0.5-1.1-1.1-1.5-1.8c-0.4-0.7-0.5-1.5-0.5-2.3    c0-1.3,0.2-2.4,0.6-3.2c0.4-0.9,1-1.6,1.8-2.2c0.7-0.6,1.6-1.1,2.6-1.6c1-0.4,2-0.9,3.1-1.3v-1.5c0-0.8,0-1.5-0.1-2.1    c-0.1-0.5-0.3-1-0.6-1.2c-0.3-0.3-0.7-0.4-1.3-0.4c-0.5,0-0.9,0.1-1.3,0.4c-0.3,0.2-0.6,0.6-0.7,1c-0.1,0.4-0.2,1-0.2,1.5v1    l-3.8-0.1c0-2.3,0.6-4,1.6-5c1-1.1,2.5-1.6,4.6-1.6c2,0,3.5,0.6,4.3,1.7c0.9,1.1,1.3,2.7,1.3,4.8v9.4c0,0.6,0,1.3,0.1,1.8    c0,0.6,0.1,1.1,0.1,1.7c0.1,0.5,0.1,1,0.2,1.4h-3.5c-0.1-0.4-0.2-0.9-0.3-1.4c-0.1-0.6-0.2-1.1-0.2-1.6c-0.2,0.8-0.7,1.6-1.4,2.3    C161.8,233.3,160.8,233.7,159.6,233.7z M161.1,230.4c0.4,0,0.7-0.1,1.1-0.3c0.3-0.2,0.6-0.5,0.9-0.7c0.3-0.3,0.4-0.5,0.5-0.7v-5.8    c-0.6,0.3-1.1,0.7-1.7,1c-0.5,0.3-1,0.7-1.4,1c-0.4,0.4-0.7,0.8-0.9,1.2c-0.2,0.5-0.3,1-0.3,1.6c0,0.8,0.2,1.5,0.5,2    C160.1,230.2,160.5,230.4,161.1,230.4z"></path>
		<path class="st2" d="M176.3,233.7c-1.1,0-1.9-0.2-2.6-0.6c-0.7-0.4-1.1-1-1.4-1.7c-0.3-0.7-0.4-1.6-0.4-2.6v-13.4h-2.2v-2.5h2.2    v-6h3.8v6h3.3v2.5h-3.3v13.1c0,0.8,0.1,1.4,0.4,1.7c0.3,0.3,0.8,0.5,1.5,0.5c0.2,0,0.4,0,0.7,0c0.2,0,0.5,0,0.7-0.1v2.8    c-0.5,0.1-0.9,0.1-1.3,0.2C177.2,233.6,176.7,233.7,176.3,233.7z"></path>
		<path class="st2" d="M182,209.8v-4h3.8v4H182z M182,233.4v-20.5h3.8v20.5H182z"></path>
		<path class="st2" d="M195.5,233.7c-1.5,0-2.7-0.3-3.6-0.9c-0.9-0.6-1.5-1.5-1.9-2.6c-0.4-1.1-0.6-2.5-0.6-4v-6    c0-1.5,0.2-2.9,0.6-4c0.4-1.1,1-2,1.9-2.6c0.9-0.6,2.1-0.9,3.6-0.9c1.5,0,2.7,0.3,3.6,0.9c0.9,0.6,1.5,1.5,1.8,2.6    c0.4,1.1,0.6,2.5,0.6,4v6c0,1.5-0.2,2.9-0.6,4c-0.4,1.1-1,2-1.8,2.6C198.2,233.3,197,233.7,195.5,233.7z M195.5,230.8    c0.7,0,1.2-0.2,1.5-0.6c0.3-0.4,0.5-1,0.5-1.7c0.1-0.7,0.1-1.4,0.1-2.2v-6.4c0-0.8,0-1.5-0.1-2.2c-0.1-0.7-0.2-1.2-0.5-1.7    c-0.3-0.4-0.8-0.7-1.5-0.7c-0.7,0-1.3,0.2-1.6,0.7c-0.3,0.4-0.5,1-0.6,1.7c-0.1,0.7-0.1,1.4-0.1,2.2v6.4c0,0.8,0,1.5,0.1,2.2    c0.1,0.7,0.2,1.3,0.6,1.7C194.3,230.6,194.8,230.8,195.5,230.8z"></path>
		<path class="st2" d="M205,233.4v-20.5h3.8v2c0.7-0.6,1.4-1.2,2.3-1.6c0.8-0.4,1.7-0.7,2.7-0.7c0.8,0,1.5,0.2,1.9,0.6    c0.4,0.4,0.7,1,0.9,1.6c0.2,0.6,0.3,1.3,0.3,2v16.6h-3.8v-15.5c0-0.7-0.1-1.3-0.3-1.7c-0.2-0.4-0.7-0.6-1.3-0.6    c-0.4,0-0.9,0.1-1.3,0.4c-0.5,0.2-0.9,0.6-1.3,0.9v16.6H205z"></path>
		<path class="st2" d="M229.9,233.4v-17.7h-2.5v-2.8h2.5v-1.1c0-1.3,0.1-2.4,0.3-3.3c0.2-0.9,0.6-1.6,1.3-2.1    c0.6-0.5,1.6-0.7,2.9-0.7c0.5,0,0.9,0,1.3,0.1c0.4,0,0.8,0.1,1.2,0.2v2.8c-0.2,0-0.5-0.1-0.7-0.1c-0.3,0-0.5-0.1-0.7-0.1    c-0.7,0-1.2,0.2-1.4,0.7c-0.2,0.5-0.3,1.1-0.3,1.9v1.7h3.1v2.8h-3.1v17.7H229.9z"></path>
		<path class="st2" d="M244.6,233.7c-1.5,0-2.7-0.3-3.6-0.9c-0.9-0.6-1.5-1.5-1.9-2.6c-0.4-1.1-0.6-2.5-0.6-4v-6    c0-1.5,0.2-2.9,0.6-4c0.4-1.1,1-2,1.9-2.6c0.9-0.6,2.1-0.9,3.6-0.9c1.5,0,2.7,0.3,3.6,0.9c0.9,0.6,1.5,1.5,1.8,2.6    c0.4,1.1,0.6,2.5,0.6,4v6c0,1.5-0.2,2.9-0.6,4c-0.4,1.1-1,2-1.8,2.6C247.3,233.3,246.1,233.7,244.6,233.7z M244.6,230.8    c0.7,0,1.2-0.2,1.5-0.6c0.3-0.4,0.5-1,0.5-1.7c0.1-0.7,0.1-1.4,0.1-2.2v-6.4c0-0.8,0-1.5-0.1-2.2c-0.1-0.7-0.2-1.2-0.5-1.7    c-0.3-0.4-0.8-0.7-1.5-0.7c-0.7,0-1.3,0.2-1.6,0.7c-0.3,0.4-0.5,1-0.6,1.7c-0.1,0.7-0.1,1.4-0.1,2.2v6.4c0,0.8,0,1.5,0.1,2.2    c0.1,0.7,0.2,1.3,0.6,1.7C243.3,230.6,243.8,230.8,244.6,230.8z"></path>
		<path class="st2" d="M254.1,233.4v-20.5h3.8v2.9c0.8-1.3,1.5-2.1,2.3-2.5c0.8-0.4,1.5-0.6,2.3-0.6c0.1,0,0.2,0,0.3,0    c0.1,0,0.2,0,0.3,0v4.2c-0.3-0.1-0.6-0.2-1-0.3c-0.4-0.1-0.7-0.1-1.1-0.1c-0.6,0-1.1,0.1-1.6,0.4c-0.5,0.3-1,0.8-1.4,1.6v15H254.1    z"></path>
		<path class="st2" d="M280.7,233.7c-1.7,0-3-0.4-4.1-1.1c-1.1-0.7-1.9-1.7-2.5-3c-0.6-1.3-0.9-2.7-1-4.4l3.6-1c0.1,1,0.2,2,0.5,2.9    c0.2,0.9,0.7,1.7,1.2,2.3c0.6,0.6,1.4,0.9,2.4,0.9c1,0,1.8-0.3,2.4-0.9c0.5-0.6,0.8-1.4,0.8-2.5c0-1.3-0.3-2.4-0.9-3.1    c-0.6-0.8-1.3-1.6-2.2-2.4l-4.8-4.3c-0.9-0.8-1.6-1.7-2.1-2.7c-0.5-1-0.7-2.2-0.7-3.6c0-2.1,0.6-3.7,1.8-4.9    c1.2-1.2,2.9-1.7,4.9-1.7c1.1,0,2.1,0.1,3,0.4c0.9,0.3,1.6,0.8,2.2,1.4c0.6,0.6,1,1.4,1.4,2.3c0.3,0.9,0.6,2,0.7,3.3l-3.4,0.9    c-0.1-0.9-0.2-1.8-0.4-2.6c-0.2-0.8-0.6-1.4-1.1-1.9c-0.5-0.5-1.3-0.7-2.3-0.7c-1,0-1.8,0.3-2.3,0.8c-0.6,0.5-0.8,1.3-0.8,2.4    c0,0.9,0.1,1.6,0.4,2.2c0.3,0.6,0.8,1.1,1.4,1.7l4.9,4.3c1.1,0.9,2,2.1,2.9,3.4c0.8,1.3,1.2,2.9,1.2,4.7c0,1.4-0.3,2.6-0.9,3.7    c-0.6,1-1.4,1.8-2.4,2.4C283.2,233.4,282,233.7,280.7,233.7z"></path>
		<path class="st2" d="M290.4,233.4v-20.5h3.5v2c0.7-0.8,1.4-1.4,2.3-1.7c0.8-0.4,1.7-0.6,2.6-0.6c0.8,0,1.4,0.2,2,0.6    c0.6,0.4,1,1.1,1.3,2c0.7-0.9,1.5-1.6,2.4-2c0.9-0.4,1.8-0.6,2.7-0.6c0.7,0,1.3,0.2,1.8,0.5c0.5,0.3,1,0.8,1.3,1.5    c0.3,0.7,0.5,1.6,0.5,2.8v16.1h-3.5v-15.9c0-1-0.2-1.7-0.5-2c-0.3-0.3-0.8-0.5-1.3-0.5c-0.5,0-1.1,0.1-1.6,0.4    c-0.6,0.3-1.1,0.7-1.6,1.2c0,0.1,0,0.2,0,0.3c0,0.1,0,0.2,0,0.3v16.1h-3.5v-15.9c0-1-0.2-1.7-0.5-2c-0.3-0.3-0.8-0.5-1.3-0.5    c-0.5,0-1.1,0.1-1.6,0.4c-0.6,0.3-1.1,0.7-1.6,1.2v16.7H290.4z"></path>
		<path class="st2" d="M318.2,233.7c-0.8,0-1.5-0.2-2.1-0.7c-0.6-0.5-1.1-1.1-1.5-1.8c-0.4-0.7-0.5-1.5-0.5-2.3    c0-1.3,0.2-2.4,0.6-3.2c0.4-0.9,1-1.6,1.8-2.2c0.7-0.6,1.6-1.1,2.6-1.6c1-0.4,2-0.9,3.1-1.3v-1.5c0-0.8,0-1.5-0.1-2.1    c-0.1-0.5-0.3-1-0.6-1.2s-0.7-0.4-1.3-0.4c-0.5,0-0.9,0.1-1.3,0.4c-0.3,0.2-0.6,0.6-0.7,1c-0.1,0.4-0.2,1-0.2,1.5v1l-3.8-0.1    c0-2.3,0.6-4,1.6-5c1-1.1,2.5-1.6,4.6-1.6c2,0,3.5,0.6,4.3,1.7c0.9,1.1,1.3,2.7,1.3,4.8v9.4c0,0.6,0,1.3,0.1,1.8    c0,0.6,0.1,1.1,0.1,1.7c0.1,0.5,0.1,1,0.2,1.4h-3.5c-0.1-0.4-0.2-0.9-0.3-1.4c-0.1-0.6-0.2-1.1-0.2-1.6c-0.2,0.8-0.7,1.6-1.4,2.3    C320.4,233.3,319.4,233.7,318.2,233.7z M319.7,230.4c0.4,0,0.7-0.1,1.1-0.3c0.3-0.2,0.6-0.5,0.9-0.7c0.3-0.3,0.4-0.5,0.5-0.7v-5.8    c-0.6,0.3-1.1,0.7-1.7,1c-0.5,0.3-1,0.7-1.4,1c-0.4,0.4-0.7,0.8-0.9,1.2c-0.2,0.5-0.3,1-0.3,1.6c0,0.8,0.2,1.5,0.5,2    C318.7,230.2,319.1,230.4,319.7,230.4z"></path>
		<path class="st2" d="M329.8,233.4v-20.5h3.8v2.9c0.8-1.3,1.5-2.1,2.3-2.5c0.8-0.4,1.5-0.6,2.3-0.6c0.1,0,0.2,0,0.3,0    c0.1,0,0.2,0,0.3,0v4.2c-0.3-0.1-0.6-0.2-1-0.3c-0.4-0.1-0.7-0.1-1.1-0.1c-0.6,0-1.1,0.1-1.6,0.4c-0.5,0.3-1,0.8-1.4,1.6v15H329.8    z"></path>
		<path class="st2" d="M346.6,233.7c-1.1,0-1.9-0.2-2.6-0.6c-0.7-0.4-1.1-1-1.4-1.7c-0.3-0.7-0.4-1.6-0.4-2.6v-13.4H340v-2.5h2.2v-6    h3.8v6h3.3v2.5h-3.3v13.1c0,0.8,0.1,1.4,0.4,1.7c0.3,0.3,0.8,0.5,1.5,0.5c0.2,0,0.4,0,0.7,0c0.2,0,0.5,0,0.7-0.1v2.8    c-0.5,0.1-0.9,0.1-1.3,0.2S347,233.7,346.6,233.7z"></path>
		<path class="st2" d="M357.7,233.7c-1.6,0-2.9-0.3-3.7-0.9c-0.9-0.6-1.5-1.6-1.8-2.8c-0.3-1.2-0.5-2.7-0.5-4.5v-4.7    c0-1.8,0.2-3.3,0.5-4.5c0.4-1.2,1-2.1,1.9-2.7c0.9-0.6,2.1-0.9,3.7-0.9c1.7,0,3,0.4,3.8,1.1c0.8,0.7,1.4,1.7,1.6,3.1    c0.3,1.3,0.4,2.9,0.4,4.8v1.7h-8.1v4.1c0,0.8,0.1,1.5,0.2,2c0.2,0.5,0.4,0.9,0.7,1.2c0.3,0.2,0.8,0.4,1.3,0.4c0.6,0,1-0.1,1.3-0.4    c0.3-0.3,0.5-0.7,0.6-1.2c0.1-0.5,0.2-1.1,0.2-1.8v-1.2h3.7v0.8c0,2.1-0.4,3.7-1.3,4.9C361.3,233.1,359.8,233.7,357.7,233.7z     M355.5,221.1h4.4v-1.8c0-0.9,0-1.6-0.1-2.2c-0.1-0.6-0.3-1-0.6-1.3c-0.3-0.3-0.8-0.4-1.4-0.4c-0.6,0-1.1,0.1-1.4,0.4    c-0.3,0.3-0.5,0.8-0.7,1.4c-0.1,0.7-0.2,1.6-0.2,2.8V221.1z"></path>
		<path class="st2" d="M367.1,233.4v-20.5h3.8v2.9c0.8-1.3,1.5-2.1,2.3-2.5c0.8-0.4,1.5-0.6,2.3-0.6c0.1,0,0.2,0,0.3,0    c0.1,0,0.2,0,0.3,0v4.2c-0.3-0.1-0.6-0.2-1-0.3c-0.4-0.1-0.7-0.1-1.1-0.1c-0.6,0-1.1,0.1-1.6,0.4c-0.5,0.3-1,0.8-1.4,1.6v15H367.1    z"></path>
		<path class="st2" d="M387.1,233.4v-28.8h3.9v28.8H387.1z"></path>
		<path class="st2" d="M395.4,233.4v-20.5h3.8v2c0.7-0.6,1.4-1.2,2.3-1.6c0.8-0.4,1.7-0.7,2.7-0.7c0.8,0,1.5,0.2,1.9,0.6    c0.4,0.4,0.7,1,0.9,1.6c0.2,0.6,0.3,1.3,0.3,2v16.6h-3.8v-15.5c0-0.7-0.1-1.3-0.3-1.7c-0.2-0.4-0.7-0.6-1.3-0.6    c-0.4,0-0.9,0.1-1.3,0.4c-0.5,0.2-0.9,0.6-1.3,0.9v16.6H395.4z"></path>
		<path class="st2" d="M415.7,233.7c-1.7,0-3-0.6-3.9-1.9c-0.9-1.3-1.3-3.4-1.3-6.4v-4c0-1.6,0.1-3,0.4-4.4c0.3-1.3,0.8-2.4,1.5-3.2    c0.7-0.8,1.8-1.2,3.2-1.2c0.7,0,1.3,0.2,1.9,0.5c0.6,0.3,1.1,0.7,1.5,1.1v-9.6h3.8v28.8H419v-1.3c-0.4,0.5-0.9,0.9-1.5,1.2    C417,233.5,416.4,233.7,415.7,233.7z M416.7,230.7c0.4,0,0.7-0.1,1.1-0.2c0.4-0.1,0.8-0.3,1.2-0.6v-13.5c-0.3-0.2-0.7-0.4-1.1-0.6    c-0.4-0.2-0.8-0.3-1.3-0.3c-0.9,0-1.5,0.4-1.8,1.3c-0.3,0.8-0.5,1.9-0.5,3v5.8c0,0.9,0.1,1.8,0.2,2.6c0.1,0.8,0.3,1.4,0.7,1.8    C415.5,230.5,416,230.7,416.7,230.7z"></path>
		<path class="st2" d="M426.9,209.8v-4h3.8v4H426.9z M426.9,233.4v-20.5h3.8v20.5H426.9z"></path>
		<path class="st2" d="M438.5,233.7c-0.8,0-1.5-0.2-2.1-0.7c-0.6-0.5-1.1-1.1-1.5-1.8c-0.4-0.7-0.5-1.5-0.5-2.3    c0-1.3,0.2-2.4,0.6-3.2c0.4-0.9,1-1.6,1.8-2.2c0.7-0.6,1.6-1.1,2.6-1.6c1-0.4,2-0.9,3.1-1.3v-1.5c0-0.8,0-1.5-0.1-2.1    c-0.1-0.5-0.3-1-0.6-1.2c-0.3-0.3-0.7-0.4-1.3-0.4c-0.5,0-0.9,0.1-1.3,0.4c-0.3,0.2-0.6,0.6-0.7,1c-0.1,0.4-0.2,1-0.2,1.5v1    l-3.8-0.1c0-2.3,0.6-4,1.6-5c1-1.1,2.5-1.6,4.6-1.6c2,0,3.5,0.6,4.3,1.7c0.9,1.1,1.3,2.7,1.3,4.8v9.4c0,0.6,0,1.3,0.1,1.8    c0,0.6,0.1,1.1,0.1,1.7c0.1,0.5,0.1,1,0.2,1.4h-3.5c-0.1-0.4-0.2-0.9-0.3-1.4c-0.1-0.6-0.2-1.1-0.2-1.6c-0.2,0.8-0.7,1.6-1.4,2.3    C440.6,233.3,439.7,233.7,438.5,233.7z M440,230.4c0.4,0,0.7-0.1,1.1-0.3c0.3-0.2,0.6-0.5,0.9-0.7c0.3-0.3,0.4-0.5,0.5-0.7v-5.8    c-0.6,0.3-1.1,0.7-1.7,1c-0.5,0.3-1,0.7-1.4,1c-0.4,0.4-0.7,0.8-0.9,1.2c-0.2,0.5-0.3,1-0.3,1.6c0,0.8,0.2,1.5,0.5,2    C439,230.2,439.4,230.4,440,230.4z"></path>
		<path class="st2" d="M450,233.4v-20.5h3.8v2c0.7-0.6,1.4-1.2,2.3-1.6c0.8-0.4,1.7-0.7,2.7-0.7c0.8,0,1.5,0.2,1.9,0.6    c0.4,0.4,0.7,1,0.9,1.6c0.2,0.6,0.3,1.3,0.3,2v16.6h-3.8v-15.5c0-0.7-0.1-1.3-0.3-1.7c-0.2-0.4-0.7-0.6-1.3-0.6    c-0.4,0-0.9,0.1-1.3,0.4c-0.5,0.2-0.9,0.6-1.3,0.9v16.6H450z"></path>
		<path class="st2" d="M470.3,233.7c-1.7,0-3-0.5-4.1-1.6c-1-1.1-1.6-2.4-1.7-4.2l3.2-1c0.2,1.3,0.5,2.3,1,2.9c0.4,0.7,1.1,1,2,1    c0.7,0,1.2-0.2,1.6-0.6c0.4-0.4,0.5-0.9,0.5-1.6c0-0.6-0.1-1.1-0.4-1.6c-0.3-0.5-0.7-1-1.3-1.5l-3.5-3c-0.7-0.6-1.3-1.3-1.8-2.1    c-0.5-0.8-0.7-1.7-0.7-3c0-1.1,0.2-2,0.7-2.8c0.4-0.7,1.1-1.3,1.8-1.7c0.8-0.4,1.7-0.6,2.8-0.6c1.6,0,2.9,0.5,3.7,1.6    c0.9,1.1,1.4,2.3,1.5,3.8l-2.6,1c-0.1-0.7-0.2-1.3-0.4-1.9c-0.2-0.5-0.5-0.9-0.8-1.2c-0.3-0.3-0.8-0.4-1.3-0.4    c-0.6,0-1.1,0.2-1.5,0.6c-0.4,0.4-0.6,0.9-0.6,1.5c0,0.4,0.1,0.7,0.2,1c0.2,0.3,0.4,0.7,0.8,1l3.6,3.3c0.5,0.5,1,0.9,1.4,1.5    c0.4,0.5,0.8,1.1,1.1,1.8c0.3,0.7,0.4,1.4,0.4,2.3c0,1.2-0.2,2.1-0.7,2.9c-0.5,0.8-1.1,1.4-2,1.8    C472.4,233.5,471.5,233.7,470.3,233.7z"></path>
	</g>
</g>
</svg>
